<svg xmlns="http://www.w3.org/2000/svg" viewBox="0 0 158.36633 150.78882">
<path d="M81.985465 79.31705l12.52719-17.245888s.45428-11.632481-1.18844-22.055427c-1.64273-10.422946-12.13676-34.123569-12.59065-36.080038-.4539-1.956468-.52371-3.185646-1.54456-3.185697-1.02085-.000051-1.0908 1.22912-1.54488 3.185542-.45409 1.956424-10.950499 25.655996-12.594268 36.078778-1.643769 10.422781-1.19065 22.055308-1.19065 22.055308L76.384665 79.31677m-.003-.003L63.850964 62.070435s-10.922766-4.026683-21.343205-5.685232c-10.420442-1.65854-36.203908.997984-38.204882.825079-2.000971-.172905-3.191564-.48634-3.507072.48453-.315509.97087.831889 1.417223 2.552236 2.453654C5.06839 61.184898 24.364454 78.49114 33.769156 83.27528c9.404702 4.78413 20.607914 7.94784 20.607914 7.94784l20.273587-6.58276m-.0039.002l-20.271583 6.58892s-7.204923 9.14386-12.00239 18.54176c-4.797459 9.39791-10.238483 34.74036-11.021261 36.58997-.782776 1.8496-1.448784 2.88507-.622929 3.48515.825855.60008 1.604927-.35323 3.122248-1.6691 1.517322-1.31587 23.939353-14.3196 31.395547-21.78562 7.456194-7.46603 13.927046-17.14328 13.927046-17.14328l.004-21.31551m.00046.004l.002 21.31551s6.46988 9.67789 13.92532 17.14467c7.455445 7.46677 29.876165 20.47274 31.393355 21.78876 1.51719 1.31603 2.29617 2.26941 3.12209 1.66941.82591-.59999.16001-1.63553-.62259-3.48521-.78259-1.84969-6.22107-27.19268-11.0176-36.59107-4.79652-9.39839-12.00052-18.54296-12.00052-18.54296l-20.270925-6.59095m.004.00088l20.272925 6.58478s11.20353-3.16258 20.60872-7.94577c9.40518-4.78319 28.70297-22.087508 30.42343-23.123767 1.72045-1.036259 2.86788-1.482497 2.55248-2.453399-.31542-.970902-1.50605-.657586-3.50703-.484881-2.00099.172705-27.78419-2.486401-38.2048-.828901-10.4206 1.657499-21.343775 5.68309-21.343775 5.68309L81.982545 79.32092" fill="#aa94d1" stroke="#000" stroke-width="1.5" stroke-linejoin="bevel"/>
<path d="M79.188165 17.410719l-1.3869 3.544764c-2.78585 7.358328-5.75336 14.751181-6.809292 22.588309-.70719 5.375512-.780725 10.86745-.80549 16.33921l8.998932 12.521278 9.00019-12.520377c-.0242-5.471763-.0972-10.963708-.80387-16.339291-1.05513-7.837233-4.0219-15.230383-6.80703-22.58899zM16.640962 62.84388l2.942696 2.41441c6.13731 4.92335 12.25132 10.03014 19.378571 13.4562 4.893881 2.3337 10.094302 4.10074 15.290601 5.81516l14.689266-4.68921-9.126376-12.428693c-5.211441-1.667827-10.457127-3.295576-15.787995-4.2846-7.779708-1.418343-15.727793-.881385-23.586895-.506512zm23.881355 73.52554l3.205584-2.05257c6.57892-4.31553 13.325096-8.55221 18.78591-14.27192 3.731776-3.93321 7.019347-8.33306 10.255603-12.74525l.07953-15.41936-14.640597 4.83902c-3.196622 4.44099-6.365709 8.92693-8.953656 13.69126-3.752986 6.96065-5.698403 14.68566-7.770473 22.27595zm77.306693.008l-.96154-3.68297c-2.07131-7.5905-4.01596-15.3157-7.76824-22.27673-2.58752-4.76456-5.75611-9.25085-8.95229-13.69216l-14.640105-4.84048.078 15.41937c3.23582 4.41251 6.5229 8.81272 10.25433 12.74627 5.460225 5.72026 12.205985 9.95762 18.784475 14.2738zm23.8968-73.520524l-3.79984-.223625c-7.85906-.375657-15.8071-.913409-23.58695.504146-5.33095.988547-10.57681 2.615713-15.788415 4.283026l-9.12762 12.427777 14.688795 4.69068c5.19647-1.71391 10.39708-3.48037 15.29118-5.81364 7.12759-3.42533 13.24212-8.53151 19.37992-13.454248z" fill="#553686"/>
<circle r="16.373112" cy="83.171722" cx="79.184875" fill="#ddc82d" stroke="#000" stroke-width="1.5"/>
</svg>